<?xml version="1.0" encoding="UTF-8" standalone="no"?>
<svg
   viewBox="0 0 163 173.50902"
   width="163"
   height="173.50902"
   version="1.1"
   id="svg15"
   sodipodi:docname="logo.svg"
   inkscape:version="1.4.3 (0d15f75042, 2025-12-25)"
   xml:space="preserve"
   xmlns:inkscape="http://www.inkscape.org/namespaces/inkscape"
   xmlns:sodipodi="http://sodipodi.sourceforge.net/DTD/sodipodi-0.dtd"
   xmlns="http://www.w3.org/2000/svg"
   xmlns:svg="http://www.w3.org/2000/svg"><sodipodi:namedview
     id="namedview15"
     pagecolor="#ffffff"
     bordercolor="#000000"
     borderopacity="0.25"
     inkscape:showpageshadow="2"
     inkscape:pageopacity="0.0"
     inkscape:pagecheckerboard="0"
     inkscape:deskcolor="#d1d1d1"
     inkscape:zoom="3.3650942"
     inkscape:cx="89.447718"
     inkscape:cy="86.773202"
     inkscape:window-width="1876"
     inkscape:window-height="1107"
     inkscape:window-x="0"
     inkscape:window-y="0"
     inkscape:window-maximized="1"
     inkscape:current-layer="svg15" /><!-- Define styles --><defs
     id="defs1"><style
       id="style1">
      .stopwatch-body { fill: #000000; stroke: #000000; stroke-width: 3; }
      .tick-mark { stroke: #000000; stroke-width: 2; stroke-linecap: round; }
      .hand { stroke: #000000; stroke-width: 3; stroke-linecap: round; }
      .button { fill: #000000; stroke: #000000; stroke-width: 2; }
      .center-dot { fill: #000000; }
    </style></defs><!-- Left button on top --><rect
     class="button"
     x="71.362564"
     y="1"
     width="20.274866"
     height="11.009013"
     rx="3.04123"
     id="rect1"
     style="fill:none" /><!-- Right button on top --><!-- Button connector stem --><rect
     class="button"
     x="94.681068"
     y="-25.333691"
     width="16"
     height="10"
     rx="2"
     id="rect3"
     style="fill:none"
     transform="rotate(16.734948)" /><!-- Main stopwatch circle --><circle
     class="stopwatch-body"
     cx="81.5"
     cy="92.009018"
     r="80"
     id="circle3"
     style="fill:none" /><!-- 12 tick marks around the circle --><!-- 12 o'clock --><line
     class="tick-mark"
     x1="81.5"
     y1="27.009014"
     x2="81.5"
     y2="12.009014"
     id="line3" /><!-- 1 o'clock --><line
     class="tick-mark"
     x1="116.14"
     y1="35.219013"
     x2="122.71001"
     y2="23.219013"
     id="line4" /><!-- 2 o'clock --><line
     class="tick-mark"
     x1="138.82001"
     y1="59.689014"
     x2="148.57001"
     y2="48.469013"
     id="line5" /><!-- 3 o'clock --><line
     class="tick-mark"
     x1="146.5"
     y1="92.009018"
     x2="161.5"
     y2="92.009018"
     id="line6" /><!-- 4 o'clock --><line
     class="tick-mark"
     x1="138.82001"
     y1="124.32903"
     x2="148.57001"
     y2="135.54901"
     id="line7" /><!-- 5 o'clock --><line
     class="tick-mark"
     x1="116.14"
     y1="148.79901"
     x2="122.71001"
     y2="160.79901"
     id="line8" /><!-- 6 o'clock --><line
     class="tick-mark"
     x1="81.5"
     y1="157.00902"
     x2="81.5"
     y2="172.00902"
     id="line9" /><!-- 7 o'clock --><line
     class="tick-mark"
     x1="46.860001"
     y1="148.79901"
     x2="40.290001"
     y2="160.79901"
     id="line10" /><!-- 8 o'clock --><line
     class="tick-mark"
     x1="24.18"
     y1="124.32903"
     x2="14.43"
     y2="135.54901"
     id="line11" /><!-- 9 o'clock --><line
     class="tick-mark"
     x1="16.5"
     y1="92.009018"
     x2="1.5"
     y2="92.009018"
     id="line12" /><!-- 10 o'clock --><line
     class="tick-mark"
     x1="24.18"
     y1="59.689014"
     x2="14.43"
     y2="48.469013"
     id="line13" /><!-- 11 o'clock --><line
     class="tick-mark"
     x1="46.860001"
     y1="35.219013"
     x2="40.290001"
     y2="23.219013"
     id="line14" /><!-- Stopwatch hand pointing at 2 o'clock position --><!-- Center dot --><g
     id="g13"
     style="display:none"
     inkscape:label="hand"
     transform="translate(-18.5,-37.990986)"><line
       class="hand"
       x1="100"
       y1="130"
       x2="135"
       y2="95"
       id="line15" /><circle
       class="center-dot"
       cx="100"
       cy="130"
       r="5"
       id="circle15" /></g><g
     id="g12"
     transform="matrix(0.02635061,0,0,0.02635061,71.477603,152.28432)"><g
       id="g11"><path
         style="fill:#000000"
         d="m -1151.3952,-2091.9435 c -2.734,-4.3308 -7.3709,-11.6324 -10.3043,-16.2257 -13.4442,-21.0526 -27.8593,-44.0422 -32.9608,-52.5668 -3.072,-5.1334 -7.2625,-11.4201 -9.3123,-13.9705 -2.0498,-2.5504 -3.7269,-5.1404 -3.7269,-5.7556 0,-0.6152 -1.4314,-3.0285 -3.181,-5.3629 -1.7496,-2.3344 -4.5996,-6.8757 -6.3333,-10.0918 -3.818,-7.0822 -3.8438,-7.124 -13.8242,-22.3466 -11.2673,-17.1854 -19.5641,-30.4038 -25.4035,-40.4726 -2.7644,-4.7667 -7.5515,-12.2667 -10.6379,-16.6667 -3.0865,-4.4 -8.4746,-12.8 -11.9735,-18.6667 -3.499,-5.8666 -8.9035,-14.5666 -12.01,-19.3333 -3.1066,-4.7667 -6.9562,-11.0667 -8.5547,-14 -1.5986,-2.9333 -5.2665,-8.6333 -8.151,-12.6667 -2.8846,-4.0333 -7.4443,-11.2333 -10.1326,-16 -2.6884,-4.7666 -7.1928,-11.9143 -10.0098,-15.8837 -2.817,-3.9694 -5.1218,-7.6399 -5.1218,-8.1567 0,-0.9406 19.9835,-7.9596 22.6617,-7.9596 2.1206,0 30.3447,-12.5156 49.476,-21.9395 15.6352,-7.7018 40.1405,-22.1658 43.1956,-25.4958 0.7334,-0.7993 7.3334,-5.876 14.6667,-11.2815 15.7141,-11.5832 35.744,-27.4654 41.2074,-32.6744 0.8026,-0.7652 7.1593,-6.4371 14.1259,-12.6043 29.2994,-25.9369 68.6958,-67.4448 101.8775,-107.3378 7.9295,-9.5333 17.201,-20.6111 20.6033,-24.6173 3.4022,-4.0063 7.8342,-9.7063 9.8488,-12.6667 2.0146,-2.9605 6.6978,-8.9826 10.4071,-13.3826 3.7093,-4.4 8.82264,-11 11.36304,-14.6667 2.5404,-3.6667 8.2388,-11.7667 12.6632,-18 4.4243,-6.2333 9.0336,-12.8333 10.243,-14.6667 1.2093,-1.8333 4.0277,-5.6903 6.2631,-8.571 2.2354,-2.8807 5.2644,-7.1868 6.731,-9.5692 1.4667,-2.3824 6.2598,-9.6255 10.6514,-16.0957 4.3916,-6.4703 8.641,-12.9641 9.4431,-14.4307 3.5432,-6.4792 10.74148,-17.7187 14.08968,-22 2.00724,-2.5667 5.20209,-7.6667 7.09966,-11.3334 1.89758,-3.6666 6.735,-12.0056 10.74983,-18.5311 4.01483,-6.5254 7.29969,-12.2579 7.29969,-12.7389 0,-0.481 1.90017,-3.842 4.22261,-7.4689 6.25039,-9.7611 13.01368,-21.5947 17.32029,-30.3049 2.09677,-4.2408 5.41999,-10.2408 7.38493,-13.3333 1.96494,-3.0926 8.17195,-14.6229 13.79335,-25.6229 5.6214,-11 11.80303,-23 13.73696,-26.6666 5.06709,-9.6071 26.20852,-53.4529 26.20852,-54.3546 0,-0.4184 3.9,-8.8912 8.66667,-18.8283 4.76667,-9.9371 8.66667,-18.5755 8.66667,-19.1965 0,-0.9216 8.69344,-20.696 18.00467,-40.954 1.70313,-3.7054 6.32467,-15.5505 10.84287,-27.7906 1.04029,-2.8182 3.04012,-7.3756 4.44408,-10.1276 1.40396,-2.752 4.4584,-10.6462 6.78765,-17.5427 2.32925,-6.8965 5.35424,-15.0341 6.7222,-18.0836 4.58113,-10.2123 12.17371,-30.7335 17.92784,-48.4554 2.0239,-6.2334 4.11483,-11.9334 4.64651,-12.6667 0.53167,-0.7333 3.82764,-10.0333 7.32438,-20.6667 3.49674,-10.6333 9.82066,-29.5333 14.05317,-42 4.2325,-12.4666 8.69719,-26.1515 9.92153,-30.4109 2.56707,-8.9304 4.64083,-10.2557 16.04782,-10.2557 9.04202,0 9.15147,0.1628 16.57998,24.6666 3.11241,10.2667 9.15767,29.4667 13.43391,42.6667 4.27623,13.2 9.33074,30 11.23223,37.3333 1.90149,7.3334 3.99465,14.5334 4.65146,16 2.27761,5.086 13.3797,41.7686 13.3797,44.2082 0,1.3485 1.72641,7.8534 3.83647,14.4552 2.11006,6.6018 5.63605,18.0033 7.83552,25.3366 2.19948,7.3333 5.27307,17.5759 6.8302,22.7613 1.55712,5.1853 2.83114,10.4005 2.83114,11.5892 0,1.1887 2.09713,9.2461 4.6603,17.9054 2.56317,8.6593 6.43432,21.7441 8.60257,29.0774 2.16824,7.3334 4.30362,15.4334 4.74527,18 0.89086,5.1772 3.47977,14.3575 10.58649,37.5396 3.96338,12.9286 5.51729,16.2011 9.2482,19.4769 l 4.48439,3.9374 41.83639,0.7466 c 42.25505,0.7541 53.37234,1.7604 85.83639,7.7693 8.06667,1.4931 19.27669,3.5528 24.91117,4.5772 21.99271,3.9984 63.94819,17.8245 88.16806,29.0552 29.34882,13.609 67.15824,35.7873 76.92077,45.1202 1.83333,1.7527 5.43333,4.6443 8,6.4258 11.86292,8.2341 38.76636,35.1475 56.16052,56.1813 14.94808,18.0758 28.54648,39.5663 45.41709,71.7757 1.44191,2.7529 1.92602,5.0912 1.20361,5.8136 -1.66809,1.6681 -19.17704,0.4663 -182.11455,-12.4996 -60.3196,-4.8 -94,-6.2538 -94,-4.0573 0,0.8035 1.15583,4.9132 2.56851,9.1328 1.41269,4.2196 2.96347,9.772 3.4462,12.3387 0.48272,2.5666 2.5667,9.7666 4.63106,16 8.13701,24.5696 14.68756,45.5485 14.68756,47.0385 0,0.8614 4.2,14.8775 9.33333,31.1468 5.13334,16.2692 9.33334,30.5836 9.33334,31.8096 0,1.9707 4.14407,15.1902 12.47,39.7792 l 2.63238,7.7742 4.69887,-0.8815 c 9.39443,-1.7624 36.04964,-3.2711 58.33846,-3.3019 30.54372,-0.042 52.62643,1.9008 75.82255,6.6719 10.59727,2.1798 20.44275,3.9632 21.87883,3.9632 3.69271,0 36.72991,11.0735 46.94845,15.7364 4.69908,2.1442 10.04379,4.3662 11.87712,4.9377 8.62839,2.6898 40.690565,20.025 55.129675,29.8073 5.02132,3.4019 10.42132,7.0617 12,8.1329 11.51162,7.8114 29.77716,25.3984 53.2755992,51.2965 12.610431,13.8982 24.7280568,27.1314 26.9280568,29.4072 2.2,2.2758 12.839387,13.7396 23.643082,25.475 17.762098,19.294 26.030859,27.2069 28.430434,27.2069 0.466489,0 2.440785,1.1173 4.387323,2.4828 5.087315,3.5687 27.19961,10.7259 37.45351,12.1227 27.01776,3.6805 61.94251,2.3365 118.75232,-4.5701 15.03334,-1.8277 29.35632,-3.3333 31.82885,-3.3459 11.33423,-0.057 72.8112,-16.9824 90.83782,-25.008 10.73583,-4.7797 44.69476,-21.8855 46.60094,-23.4738 1.13615,-0.9467 6.56573,-4.3696 12.06573,-7.6065 13.75029,-8.0922 47.09132,-30.7409 56,-38.0409 4.03333,-3.305 12.13333,-9.9398 18,-14.7439 24.69266,-20.2204 65.78846,-61.8614 74.2258,-75.2106 1.17994,-1.8668 5.06183,-7.1128 8.62643,-11.6578 3.56461,-4.545 8.5811,-11.0274 11.14777,-14.4054 12.93056,-17.0179 37.40936,-33.1911 66.66666,-44.0469 10.55511,-3.9164 41.18802,-9.3592 63.9006,-11.3537 18.00324,-1.5809 76.81548,-0.7668 104.76607,1.4502 19.02202,1.5088 61.81414,4.1153 78.66667,4.7916 28.39389,1.1395 85.31028,8.3093 132.6683,16.7123 12.1009,2.1472 23.8979,3.904 26.2155,3.904 3.8764,0 47.2594,8.4072 75.7828,14.6859 6.6,1.4529 18.9,3.8626 27.3334,5.355 8.4333,1.4923 23.1333,4.5229 32.6666,6.7346 41.0447,9.5221 52.3071,12.1186 57.3334,13.2178 29.1656,6.3781 49.1018,13.8701 55.7031,20.9332 4.47,4.7826 6.0062,14.2736 3.6966,22.8367 -2.5534,9.4665 -21.2114,25.0312 -38.7331,32.3114 -4.0333,1.6759 -8.0284,3.5725 -8.8779,4.2148 -1.7378,1.3138 -18.6612,6.8265 -29.7887,9.7034 -6.2035,1.6038 -46.7226,4.9041 -57.3334,4.6698 -19.3703,-0.4278 -188.27904,1.6314 -221.99994,2.7064 -47.66518,1.5194 -70.65177,3.5192 -100.66666,8.7575 -17.5138,3.0566 -23.10015,4.2057 -42.66667,8.7766 -12.94704,3.0246 -59.40634,19.4502 -73.33333,25.927 -5.5,2.5578 -14.8,6.8512 -20.66667,9.5408 -12.28535,5.6324 -56.64592,27.9838 -58.65318,29.5529 -0.74075,0.579 -9.14682,5.1123 -18.68015,10.074 -9.53334,4.9617 -18.83334,10.067 -20.66667,11.3451 -1.83333,1.2782 -9.30194,5.4954 -16.59691,9.3717 -7.29496,3.8763 -17.79496,9.9512 -23.33333,13.4998 -5.53837,3.5485 -10.50408,6.4519 -11.03492,6.452 -0.53084,1e-4 -8.63084,4.5947 -18,10.2101 -9.36916,5.6155 -19.58484,11.6155 -22.70151,13.3334 -3.11666,1.7178 -8.4996,4.6772 -11.96207,6.5763 -3.46248,1.8991 -7.81248,4.4804 -9.66667,5.7363 -1.85419,1.2559 -7.27126,4.2946 -12.03792,6.7527 -4.76667,2.4581 -10.16667,5.5014 -12,6.763 -4.2918,2.9533 -21.01258,11.3049 -25.3105,12.642 -1.82077,0.5664 -7.52077,2.9671 -12.66666,5.3349 -13.85225,6.3738 -37.74769,15.1039 -45.35618,16.5707 -3.66666,0.7069 -11.76666,2.8353 -18,4.7298 -6.23333,1.8945 -21.83333,5.3307 -34.66666,7.636 -22.60684,4.0611 -24.53725,4.1924 -62,4.2165 l -38.66667,0.025 -23.35884,-4.8774 c -12.84737,-2.6826 -27.84737,-6.3301 -33.33334,-8.1056 -5.48597,-1.7755 -13.98209,-4.1648 -18.88026,-5.3097 -8.15307,-1.9055 -30.02269,-9.8288 -43.09423,-15.6129 -2.93334,-1.298 -8.93334,-3.5536 -13.33334,-5.0125 -4.4,-1.4589 -15.046232,-5.3933 -23.658298,-8.743 -8.612066,-3.3497 -18.512066,-6.947 -22,-7.994 -3.487934,-1.047 -18.138553,-6.1714 -32.556931,-11.3875 -14.418378,-5.2161 -27.1370158,-9.4838 -28.2636398,-9.4838 -1.126624,0 -7.029769,-1.708 -13.1181002,-3.7957 -32.322066,-11.0828 -35.415436,-12.0126 -67.736356,-20.3601 -5.5,-1.4204 -13.9,-3.7347 -18.66667,-5.1428 -14.857895,-4.389 -28.447895,-7.8835 -33.999995,-8.7426 -2.93333,-0.4538 -14.33333,-2.5442 -25.33333,-4.6452 -24.08955,-4.6012 -56.65592,-10.3461 -64,-11.29 -23.11451,-2.9708 -52.09749,-6.0848 -55.66895,-5.9812 -2.38208,0.069 -12.43105,-0.3622 -22.33105,-0.9584 -22.78992,-1.3724 -126.41665,-1.4145 -152,-0.062 -48.83798,2.5825 -91.42128,7.6348 -142.66667,16.9267 -7.7,1.3961 -18.5,3.2162 -24,4.0445 -5.5,0.8283 -14.8,2.6718 -20.66667,4.0967 -5.86666,1.4249 -13.36666,3.1095 -16.66666,3.7435 -3.3,0.6339 -15.3,3.5406 -26.66667,6.4591 -11.36667,2.9186 -23.96667,6.0718 -28,7.0072 -4.03333,0.9353 -17.83333,5.0014 -30.66667,9.0357 -12.83333,4.0344 -26.63333,8.1163 -30.66666,9.0711 -4.03334,0.9547 -13.33334,3.9319 -20.66667,6.6159 -7.33333,2.6839 -21.43333,7.6898 -31.33333,11.1242 -9.9,3.4343 -18.70817,6.6908 -19.5737,7.2366 -0.86553,0.5457 -6.26553,2.719 -12,4.8294 -5.73447,2.1104 -13.4263,5.0881 -17.09297,6.6171 -14.66865,6.1171 -34.08772,14.096 -48,19.7222 -8.06667,3.2622 -19.46669,8.2676 -25.33329,11.123 -5.8667,2.8555 -15.7667,7.2508 -22,9.7674 -10.2368,4.133 -47.40464,21.5281 -54.00004,25.2729 -1.4667,0.8327 -11.6667,6.0791 -22.6667,11.6586 -11,5.5795 -25.5514,13.2529 -32.3365,17.0519 -6.7851,3.799 -12.7299,6.9073 -13.2106,6.9073 -0.4808,0 -6.6294,3.5105 -13.6635,7.8011 -19.3524,11.8043 -41.2827,24.1989 -42.816,24.1989 -0.7507,0 -3.6018,-3.5433 -6.3358,-7.8741 z m 1459.0291,-120.8333 c 17.77342,-1.5703 34.74432,-4.6362 52,-9.3942 9.53333,-2.6288 21.53333,-5.8223 26.66666,-7.0967 5.13334,-1.2745 14.13334,-4.2092 20,-6.5217 5.86667,-2.3124 16.36667,-6.3427 23.33334,-8.9563 6.96666,-2.6136 15.96666,-6.0457 20,-7.6269 9.98097,-3.913 48.40627,-23.6574 56.83011,-29.2015 3.75656,-2.4724 11.53632,-7.1953 17.28836,-10.4953 5.75203,-3.3 12.87848,-7.5071 15.83655,-9.3492 2.95807,-1.8421 7.41639,-4.5421 9.90737,-6 2.49099,-1.4579 8.19099,-5.3776 12.66667,-8.7103 4.47568,-3.3328 12.6376,-9.0034 18.1376,-12.6013 5.5,-3.598 10.3,-6.9204 10.66667,-7.3833 0.36667,-0.4629 5.6889,-4.3923 11.82719,-8.732 16.4043,-11.5979 23.19124,-16.8438 45.97808,-35.5386 38.67778,-31.732 49.17664,-42.8656 55.65358,-59.0186 2.76016,-6.8836 3.19788,-10.1398 3.13664,-23.3333 -0.0661,-14.2403 -0.38066,-16.0622 -4.41271,-25.5585 -4.8047,-11.316 -13.25296,-20.5687 -22.37831,-24.5092 -18.68946,-8.0705 -35.24391,-7.7555 -51.55364,0.981 -5.87142,3.1451 -27.77207,24.2709 -38.98307,37.6039 -3.6306,4.3177 -7.50109,8.8375 -8.60109,10.044 -1.1,1.2064 -3.58884,4.2736 -5.53075,6.8161 -1.94191,2.5425 -4.64191,5.8309 -6,7.3076 -1.35809,1.4767 -6.93344,7.6828 -12.38967,13.7914 -8.06494,9.0292 -21.88001,21.7176 -36.07662,33.1344 -1.10163,0.886 -6.24993,5.086 -11.44066,9.3334 -19.60913,16.0455 -26.73057,21.796 -32.23306,26.0279 -3.11891,2.3987 -6.41891,4.979 -7.33333,5.7339 -4.4058,3.6373 -29.00307,21.6967 -33.689,24.7345 -11.67633,7.5697 -17.64419,11.2519 -24.88541,15.3546 -15.38889,8.719 -60.78133,26.8732 -73.08817,29.2307 -2.56667,0.4917 -9.76667,2.2791 -16,3.9721 -18.90755,5.1351 -39.90738,9.6963 -54.66667,11.8736 -42.06112,6.205 -124.97767,10.9943 -159.66667,9.2224 -8.983333,-0.4588 -16.333333,-0.5172 -16.333333,-0.1298 0,2.2039 29.689243,17.2695 64.000003,32.4762 7.66758,3.3983 21.09924,7.4482 46.32553,13.9679 33.12728,8.5617 70.46859,11.6025 105.00781,8.5511 z m -1355.3334,-100.032 c 11.3667,-1.1251 26.5619,-2.6091 33.7672,-3.2979 14.31424,-1.3682 48.74714,-6.4437 72.89954,-10.7454 8.4333,-1.5021 19.83332,-3.3038 25.33332,-4.0039 10.81703,-1.3768 44.01779,-8.6098 63.33334,-13.7976 6.6,-1.7727 14.7,-3.6046 18,-4.071 8.633,-1.22 37.85051,-9.304 62.66666,-17.3388 5.5,-1.7808 12.4,-3.6505 15.33334,-4.155 2.93333,-0.5045 13.73333,-3.8824 24,-7.5064 10.26666,-3.6241 27.06666,-9.4286 37.33333,-12.8989 10.26667,-3.4702 23.76667,-8.2778 30,-10.6836 6.23333,-2.4057 15.83333,-6.059 21.33333,-8.1185 19.64757,-7.357 24.70111,-9.3613 27.1664,-10.7744 1.37486,-0.7881 9.32909,-4.0724 17.67607,-7.2984 8.34699,-3.2261 21.3235,-8.7866 28.83669,-12.3568 7.5132,-3.5702 15.15896,-6.9464 16.9906,-7.5027 1.83163,-0.5562 9.33024,-4.019 16.66358,-7.695 7.33333,-3.676 18.73333,-9.0331 25.33333,-11.9046 6.6,-2.8715 10.2,-4.9347 8,-4.5848 -2.2,0.3498 -14.2,2.4283 -26.66667,4.6188 -23.57397,4.1422 -31.51487,5.2376 -66,9.1044 -26.4045,2.9607 -123.88007,3.4304 -144,0.6938 -27.66793,-3.7632 -45.88902,-10.3471 -54.9482,-19.8546 -13.6983,-14.3761 -9.14534,-43.9571 11.29287,-73.3707 2.44023,-3.5119 6.15209,-9.3852 8.24859,-13.0519 2.0965,-3.6666 5.97068,-9.9243 8.60928,-13.9058 13.13997,-19.8277 36.10014,-64.346 45.77813,-88.7608 1.16277,-2.9334 4.60456,-11.6334 7.64843,-19.3334 3.04387,-7.7 6.76026,-17 8.25865,-20.6666 1.49838,-3.6667 3.61498,-9.6667 4.70354,-13.3334 1.08856,-3.6666 4.88209,-15.9666 8.43008,-27.3333 9.03764,-28.9539 11.50056,-37.7825 13.9485,-50 1.17547,-5.8667 3.5872,-16.9667 5.35941,-24.6667 4.98479,-21.6582 9.72496,-48.281 11.98863,-67.3333 5.98188,-50.3467 6.00339,-131.2666 0.0469,-176.4282 -2.87411,-21.7912 -13.31356,-72.0907 -14.67284,-70.6968 -0.89686,0.9197 -6.29037,16.637 -7.93549,23.125 -0.92974,3.6667 -4.48058,13.7365 -7.89077,22.3774 -3.41018,8.6408 -7.36746,19.1408 -8.79395,23.3333 -4.46971,13.1365 -10.28319,28.4166 -16.59668,43.6226 -3.34926,8.0667 -6.10129,15.3632 -6.11564,16.2145 -0.0144,0.8513 -2.12608,6.0321 -4.69275,11.5129 -2.56667,5.4808 -4.66667,10.2904 -4.66667,10.6881 0,0.3977 -2.02032,5.1169 -4.4896,10.4872 -2.46929,5.3702 -4.93621,11.264 -5.48205,13.0973 -0.54584,1.8334 -5.42551,13.0087 -10.84372,24.8342 -5.41821,11.8255 -9.85129,21.8934 -9.85129,22.3732 0,0.4798 -4.14392,9.4044 -9.20871,19.8325 -5.06478,10.4281 -11.32849,23.4601 -13.91936,28.9601 -2.59086,5.5 -6.81034,13.9 -9.37663,18.6667 -2.56628,4.7667 -6.60212,12.8355 -8.96853,17.9307 -2.36641,5.0952 -6.98529,13.7952 -10.26417,19.3333 -3.27889,5.5381 -7.055,12.4693 -8.39137,15.4027 -2.51706,5.5249 -9.20564,17.5162 -13.01826,23.339 -4.12949,6.3068 -5.51749,8.6736 -8.5978,14.661 -1.69775,3.3 -5.68858,10.2 -8.86851,15.3333 -3.17993,5.1333 -6.6886,11.1333 -7.79704,13.3333 -1.10845,2.2 -5.44762,9.1 -9.64262,15.3334 -4.195,6.2333 -14.56976,21.8333 -23.05502,34.6666 -17.23785,26.071 -51.58934,73.2722 -62.58794,86 -1.9011,2.2 -5.4472,6.528 -7.8803,9.6178 -14.6619,18.6194 -46.13676,53.0651 -83.72016,91.6223 -11.3869,11.682 -22.4741,23.082 -24.6381,25.3333 -7.9357,8.2558 -45.3855,52.3302 -48.0654,56.5678 -0.7334,1.1596 -4.9602,7.5272 -9.3931,14.1502 -12.4404,18.5871 -21.9403,41.4683 -21.9403,52.8449 0,7.3075 4.3073,16.1572 10.2471,21.0532 4.3199,3.5608 17.8899,8.7115 25.7529,9.7748 7.3343,0.9918 48.5448,-0.4448 68,-2.3704 z"
         id="path8" /><path
         style="fill:#000000"
         d="m 1779.38,-2039.8981 c -3.469,-2.2035 -4.8636,-4.6321 -7.5582,-13.1623 -1.8174,-5.753 -3.9901,-14.2417 -4.8283,-18.8636 -0.8381,-4.622 -2.0879,-9.8873 -2.7774,-11.7007 -0.6895,-1.8134 -1.8848,-7.6054 -2.6563,-12.8709 -1.6721,-11.4125 -6.946,-30.7415 -16.8003,-61.5738 -12.0734,-37.7754 -33.3603,-77.4306 -54.459,-101.4514 -10.5719,-12.036 -31.7481,-32.419 -36.9968,-35.611 -2.2981,-1.3975 -6.9139,-4.7379 -10.2574,-7.4231 -7.9756,-6.4053 -10.4627,-7.8278 -34.0791,-19.4916 -18.7879,-9.2791 -39.1158,-16.5955 -59.3333,-21.3552 -26.6997,-6.2857 -67.0881,-7.9396 -100.9299,-4.133 -16.0658,1.8071 -64.6031,10.6073 -67.135,12.1721 -0.4474,0.2765 -4.9658,1.1624 -10.0409,1.9687 -14.8352,2.3568 -76.3573,21.9433 -91.8942,29.2559 -2.9334,1.3806 -9.5334,4.3677 -14.6667,6.638 -9.7992,4.3339 -12.0266,5.4614 -25.8976,13.1081 -18.7173,10.3184 -36.0001,13.4281 -49.6696,8.9371 -8.1769,-2.6864 -10.2,-3.9446 -17.6586,-10.9826 -5.3365,-5.0354 -17.9286,-15.9604 -33.1201,-28.7351 -7.9424,-6.6788 -9.3016,-9.4004 -5.3208,-10.6539 5.9869,-1.8852 21.212,-7.9313 28.7048,-11.3991 4.5624,-2.1116 14.5952,-6.076 22.2952,-8.8099 7.7,-2.7339 20.3,-7.3273 28,-10.2076 7.7,-2.8803 18.8,-6.7617 24.6667,-8.6254 5.8667,-1.8636 22.6667,-7.209 37.3333,-11.8787 27.835,-8.8622 41.2161,-12.4994 58,-15.7655 5.5,-1.0703 17.2,-3.4585 26,-5.3072 13.3571,-2.806 39.1462,-6.6986 64,-9.6602 12.025,-1.4328 58.2422,-1.7846 75.8287,-0.5771 28.7614,1.9749 59.9643,7.785 88.838,16.5423 3.3,1.0008 9.6,2.8867 14,4.1908 4.4,1.304 14.3,5.3308 22,8.9484 7.7,3.6176 16.1278,7.3467 18.7286,8.2869 9.1823,3.3197 57.2714,34.2982 57.2714,36.8937 0,0.5814 1.7715,1.9733 3.9368,3.093 7.0409,3.6409 41.8524,38.7793 51.6135,52.098 1.586,2.164 4.886,6.6529 7.3333,9.9753 8.2578,11.2102 12.6266,17.9198 17.7711,27.2927 2.8175,5.1333 6.3878,11.1333 7.9339,13.3333 3.5801,5.094 8.0134,14.1397 17.9706,36.6667 19.3952,43.8791 34.1004,103.1144 32.7691,132 -0.8581,18.6185 -2.4275,19.6341 -32.0079,20.7134 -21.2508,0.7754 -22.9172,0.6593 -26.9076,-1.8755 z"
         id="path7" /><path
         style="fill:#000000"
         d="m -1285.7525,-2019.4273 c -11.2172,-23.8172 -16.6173,-34.4678 -22.6342,-44.6421 -3.2526,-5.5 -6.8304,-11.8 -7.9506,-14 -2.1168,-4.157 -4.2051,-7.3593 -17.0317,-26.1172 -20.2886,-29.6708 -44.5366,-57.2338 -69.7593,-79.2966 -9.2316,-8.075 -37.4495,-29.9195 -38.649,-29.9195 -0.3491,0 -6.7744,-3.8497 -14.2785,-8.5549 -7.504,-4.7051 -19.2029,-10.9973 -25.9975,-13.9827 -6.7947,-2.9853 -13.6947,-6.2903 -15.3334,-7.3443 -4.5195,-2.9071 -23.0891,-9.4582 -40.3128,-14.2218 -43.9543,-12.1565 -81.3782,-15.951 -131.3333,-13.3163 -37.3743,1.9713 -59.9625,4.759 -109.4578,13.5088 -12.1684,2.1512 -23.5684,3.9095 -25.3333,3.9075 -3.0581,0 -12.5948,1.95 -53.2089,10.8998 -33.1065,7.2954 -40.6372,8.922 -45.3333,9.7917 -2.5667,0.4753 -21.7667,4.9872 -42.6667,10.0264 -20.9,5.0392 -43.4,10.4273 -50,11.9735 -6.6,1.5462 -18.3,4.518 -26,6.604 -12.8674,3.4859 -26.8424,7.0489 -49.3333,12.5781 -4.7667,1.1718 -20.3249,5.151 -34.5737,8.8426 -32.595,8.4448 -38.9117,9.1914 -47.1042,5.5675 -6.7633,-2.9918 -9.3014,-6.3385 -18.1426,-23.9229 -5.599,-11.1357 -9.5099,-25.9998 -9.5118,-36.1512 0,-6.8818 3.1935,-11.9329 9.542,-15.0864 6.7542,-3.355 47.6192,-15.3043 62.4569,-18.2629 4.0334,-0.8043 13.9334,-3.2747 22,-5.4898 17.6491,-4.8465 48.0014,-12.2866 62.6667,-15.3612 5.8667,-1.2299 17.8667,-3.9733 26.6667,-6.0964 22.8769,-5.5194 59.9203,-13.2424 63.5169,-13.2424 1.6825,0 8.7794,-1.1635 15.771,-2.5856 45.1051,-9.1743 81.845,-15.2884 105.3787,-17.5366 6.9667,-0.6655 24.0667,-2.7076 38,-4.5379 13.9334,-1.8303 33.5834,-3.9306 43.6667,-4.6672 10.0833,-0.7367 26.2833,-1.9179 36,-2.6249 64.993,-4.7293 124.5632,-2.2872 162.3333,6.6548 6.2334,1.4758 16.0571,3.5563 21.8305,4.6234 25.667,4.7442 70.5114,21.9544 92.8362,35.6283 5.9592,3.65 23.7902,15.4696 25.8012,17.1028 0.8426,0.6844 5.7321,4.5946 10.8655,8.6893 21.2806,16.9749 43.4008,41.1345 58.0151,63.3639 4.5402,6.906 9.3719,14.1519 10.7371,16.1021 5.9631,8.5183 27.8782,53.579 31.6712,65.1209 8.9539,27.2455 10.1813,34.5562 10.1855,60.6667 0,21.9226 -0.3252,25.3272 -3.7981,39.3333 -2.0911,8.4333 -4.2806,16.2223 -4.8655,17.3088 -0.7532,1.3988 -2.8931,-1.9091 -7.3317,-11.3334 z"
         id="path5" /></g><g
       id="g10"
       style="fill:#a30a0a;fill-opacity:1"><g
         id="g8"
         style="fill:#000000;fill-opacity:1"><path
           style="fill:#000000;fill-opacity:1"
           d="m -807.68433,-1817.0694 c 0.008,-1.2833 1.50673,-16.1333 3.32983,-33 3.36714,-31.1517 5.77426,-58.7954 6.6531,-76.4052 0.5281,-10.5818 2.94743,-36.9546 8.1579,-88.9281 1.83796,-18.3333 3.91399,-40.8333 4.6134,-50 0.69942,-9.1667 1.86244,-21.4509 2.58449,-27.2984 0.72206,-5.8474 1.31284,-12.5974 1.31284,-15 v -4.3683 h -59.42318 -59.42319 l 0.88916,-3 c 0.48904,-1.65 3.75244,-7.5 7.25199,-13 3.49955,-5.5 8.64933,-13.9 11.44395,-18.6666 2.79462,-4.7667 7.38939,-12.2667 10.21059,-16.6667 2.82121,-4.4 6.16175,-9.6462 7.42341,-11.6582 l 2.29394,-3.6583 60,0.018 c 33,0.01 63.6,0.5424 68,1.1829 26.47897,3.8545 43.26465,22.6586 43.3175,48.5264 0.0166,8.1186 -0.45879,12.8847 -6.67493,66.9221 -3.86018,33.5569 -5.15023,46.6079 -6.06253,61.3334 -0.2726,4.4 -1.47798,16.5099 -2.67861,26.911 -1.20064,10.401 -1.93239,19.6627 -1.62612,20.5816 0.4634,1.3902 10.32199,-13.3521 13.48106,-20.1593 0.51048,-1.1 3.3097,-5.6 6.22047,-10 2.91077,-4.4 6.5743,-10.4 8.14117,-13.3333 1.56686,-2.9334 5.0799,-8.3334 7.80675,-12 2.72684,-3.6667 8.32969,-12.3667 12.45078,-19.3334 4.12109,-6.9666 9.59132,-15.6666 12.15607,-19.3333 2.56475,-3.6667 6.21374,-9.3667 8.10886,-12.6667 1.89512,-3.3 5.07629,-8.5273 7.06927,-11.6163 1.99297,-3.089 7.76635,-12.389 12.82972,-20.6667 5.06336,-8.2777 10.83116,-17.1503 12.81731,-19.717 1.98615,-2.5666 4.66709,-6.7666 5.95764,-9.3333 4.59896,-9.1465 24.52525,-38.0838 29.56187,-42.9303 10.85462,-10.4449 25.63541,-14.3761 54.11614,-14.393 l 16.99243,-0.01 0.34091,112.1945 0.3409,112.1945 3.19283,-6.5278 c 1.75605,-3.5904 3.93879,-7.4279 4.85053,-8.5279 0.91174,-1.1 5.97888,-10.3831 11.26031,-20.6291 5.28143,-10.246 10.67466,-20.146 11.98495,-22 1.31029,-1.854 5.45731,-9.5119 9.21559,-17.0175 3.75829,-7.5056 9.10361,-17.4056 11.8785,-22 2.77489,-4.5944 7.07275,-12.5534 9.55081,-17.6867 2.47806,-5.1334 7.03687,-13.5334 10.13071,-18.6667 3.09383,-5.1333 7.09471,-12.3333 8.89085,-16 5.12499,-10.4622 13.20412,-25.1354 15.04994,-27.3333 0.92376,-1.1 2.12645,-3.5 2.67264,-5.3334 0.54619,-1.8333 3.22509,-7.2333 5.95311,-12 2.72802,-4.7666 7.6021,-13.616 10.8313,-19.6653 l 5.87127,-10.9987 h 31.66666 c 22.06566,-9e-4 31.66667,0.4416 31.66667,1.4595 0,0.8035 -1.11244,3.0535 -2.47209,5 -1.35965,1.9465 -5.36478,9.2392 -8.90028,16.2058 -3.5355,6.9667 -8.33344,15.6667 -10.66208,19.3334 -2.32864,3.6666 -7.99197,13.8666 -12.58516,22.6666 -4.59319,8.8 -8.95285,16.7459 -9.68813,17.6575 -0.73528,0.9116 -3.06722,5.1116 -5.1821,9.3333 -2.11487,4.2218 -5.26404,10.0759 -6.99816,13.0092 -3.79957,6.4272 -9.10962,16.0751 -14.31002,26 -2.11336,4.0334 -5.65545,10.3334 -7.87133,14 -2.21588,3.6667 -6.78052,12.0217 -10.14365,18.5667 -3.36313,6.545 -7.68627,14.345 -9.60697,17.3333 -3.64123,5.6652 -4.2404,6.746 -15.20822,27.4334 -3.69353,6.9666 -7.46001,13.5666 -8.36995,14.6666 -0.90994,1.1 -5.69957,9.8 -10.64363,19.3334 -4.94406,9.5333 -10.09564,18.8886 -11.44796,20.7895 -1.35232,1.9009 -5.39836,9.1009 -8.99121,16 -3.59284,6.8991 -8.30584,15.5438 -10.47332,19.2105 -2.16748,3.6666 -4.38546,7.8666 -4.92885,9.3333 -1.05986,2.8607 -9.57344,17.5828 -15.7518,27.2388 -8.17661,12.779 -17.57907,20.6488 -30.55506,25.5745 -5.98505,2.2719 -11.45622,2.8635 -32.20242,3.4818 l -24.99239,0.745 -0.34094,-112.4394 -0.34095,-112.4394 -7.44509,11.9193 c -8.46904,13.5587 -14.96511,23.6778 -24.55491,38.2498 -12.21205,18.5565 -22.59359,34.9509 -25.1204,39.6696 -1.37441,2.5667 -4.08457,6.7655 -6.02259,9.3307 -4.42068,5.8513 -13.52367,19.8543 -13.52367,20.8032 0,0.3909 -1.5,2.6773 -3.33334,5.0809 -1.83333,2.4036 -3.33333,4.7397 -3.33333,5.1913 0,0.4516 -2.9083,5.195 -6.46288,10.5408 -14.20475,21.363 -18.86662,28.5394 -22.21783,34.2018 -13.15158,22.2216 -27.51181,38.0312 -39.16949,43.1226 -9.22988,4.0312 -27.76184,6.3754 -50.48313,6.3859 -18.48552,0.01 -20.33196,-0.2026 -20.31823,-2.3239 z"
           id="path3" /><path
           style="fill:#000000;fill-opacity:1"
           d="m -350.18245,-1813.5788 c -11.57554,-3.0661 -22.36305,-9.574 -27.69315,-16.7068 -2.10311,-2.8144 -4.52849,-5.8646 -5.38973,-6.7782 -3.21249,-3.4079 -8.45991,-15.9362 -9.91501,-23.6722 -0.92129,-4.8981 -1.19777,-14.2817 -0.71304,-24.2006 0.9076,-18.572 4.62814,-30.9226 14.53507,-48.2501 5.47117,-9.5693 18.55487,-22.9283 31.65887,-32.325 12.36962,-8.8702 37.83076,-18.0451 57.25254,-20.6309 16.47468,-2.1934 163.36916,-2.8236 164.67763,-0.7064 0.41482,0.6712 -2.87812,12.5212 -7.31766,26.3333 -7.32337,22.7843 -24.45654,76.258 -30.58132,95.4463 l -2.44715,7.6667 h 51.54917 51.549155 l 1.66864,-3.7697 c 1.89101,-4.2721 5.07946,-7.7329 46.100015,-50.0378 16.2519382,-16.7607 30.028791,-31.3107 30.615231,-32.3333 0.901975,-1.5728 -5.20948,-1.8592 -39.666667,-1.8592 -22.403109,0 -40.732919,-0.3224 -40.732919,-0.7165 0,-0.8998 10.39222,-33.3286 12.26844,-38.2835 l 1.38841,-3.6667 H 55.795651 c 58.944369,0 107.171569,0.5044 107.171569,1.1208 0,0.6164 -4.30075,5.8664 -9.55724,11.6666 -10.62181,11.7207 -29.3013,32.2057 -34.44276,37.7721 -1.83333,1.9849 -8.43333,9.2643 -14.66666,16.1767 -13.568193,15.0461 -27.182487,29.8839 -36.746001,40.0484 -3.855898,4.0982 -10.087335,11.1482 -13.847638,15.6667 l -6.836914,8.2154 h 77.250243 77.25024 l 2.56908,-4.3543 c 1.41299,-2.3948 15.17032,-17.2448 30.57185,-33 15.40152,-15.7551 32.59281,-33.4457 38.20285,-39.3124 l 10.20009,-10.6666 -41.32753,-0.3524 -41.32752,-0.3524 0.88387,-3.6476 c 0.48613,-2.0062 3.65306,-11.4476 7.03763,-20.981 l 6.15375,-17.3333 106.983,-0.3413 c 79.34487,-0.2531 106.983,0.051 106.983,1.1776 0,0.8354 -5.61504,7.589 -12.47787,15.008 -6.86284,7.4189 -14.81284,16.1887 -17.66667,19.4883 -2.85384,3.2996 -8.5602,9.5996 -12.68081,14 -7.84072,8.3731 -16.91417,18.157 -36.4777,39.3341 -6.43587,6.9666 -14.47554,15.6545 -17.86593,19.3064 -3.39039,3.6519 -9.37898,10.1019 -13.30797,14.3333 l -7.14362,7.6936 h 77.31867 77.31866 l 1.47311,-5.8502 c 0.81021,-3.2177 4.78143,-14.3636 8.82495,-24.7688 4.04352,-10.4052 7.35185,-19.6911 7.35185,-20.6352 0,-0.9441 3.65409,-11.2482 8.12019,-22.8979 4.46611,-11.6497 10.85533,-29.1312 14.19826,-38.8479 l 6.07806,-17.6667 h 46.46841 c 34.6999,0 46.46841,0.3967 46.46841,1.5665 0,1.6789 -3.25306,11.3213 -12.06662,35.7669 -6.02116,16.7004 -16.84385,47.1926 -22.00581,62 -1.78952,5.1333 -3.8548,10.5333 -4.58951,12 -1.2381,2.4715 -6.67139,17.844 -6.67139,18.8754 0,0.2518 10.71521,0.4579 23.81158,0.4579 h 23.81159 l 2.97658,-7.6667 c 1.63712,-4.2166 6.26142,-16.9666 10.27622,-28.3333 4.01481,-11.3667 8.72447,-24.5667 10.46592,-29.3333 1.74145,-4.7667 6.54953,-18.2667 10.68462,-30 4.13509,-11.7334 8.57784,-24.3334 9.87277,-28 l 2.35443,-6.6667 46.20648,-0.3506 c 40.81412,-0.3097 46.20648,-0.1117 46.20648,1.6971 0,1.1262 -1.70497,6.384 -3.78881,11.6839 -2.08385,5.2999 -6.01651,16.2363 -8.73926,24.3029 -7.42393,21.9949 -23.91601,69.1825 -28.54252,81.6667 l -4.07647,11 h 50.71807 50.71807 l -0.89492,3.6667 c -3.6034,14.7638 -12.8902,25.6313 -28.49644,33.3468 l -10.08624,4.9865 -58.86637,0.4301 c -68.02679,0.4971 -81.10752,-0.3991 -89.23882,-6.114 -3.46192,-2.4331 -6.04243,-5.6616 -7.35332,-9.1997 l -2.01964,-5.451 -7.12434,6.3846 c -13.53595,12.1303 -29.83124,15.2716 -74.0334,14.2716 -24.5531,-0.5555 -29.10833,-1.0001 -35.43034,-3.4577 -9.18006,-3.5687 -16.89623,-11.054 -19.78807,-19.1962 -1.23737,-3.4839 -2.55894,-6.3182 -2.93681,-6.2985 -0.37787,0.02 -2.18704,2.5034 -4.02037,5.5193 -4.52248,7.4396 -11.45573,13.8579 -18.63932,17.255 -12.51698,5.9193 -23.02967,6.5158 -114.02735,6.4705 -95.39265,-0.048 -107.52189,-0.6377 -117.55122,-5.7199 -7.6909,-3.8973 -10.69398,-7.7888 -11.91807,-15.4439 l -0.86416,-5.4041 -4.21349,5.3246 c -6.1861,7.8173 -13.04179,13.0225 -22.4443,17.0407 l -8.3421,3.565 -90.339745,0.4363 c -100.455546,0.4852 -116.76627,-0.2257 -127.26578,-5.5462 -6.85276,-3.4725 -11.27054,-8.8748 -12.88877,-15.7609 -0.83555,-3.5556 -0.84918,-3.5488 -8.77726,4.3793 -16.35523,16.3552 -24.434715,17.6315 -107.395105,16.965 l -56,-0.4499 -7.53554,-3.7006 c -8.01373,-3.9354 -10.40747,-6.6247 -13.03701,-14.6468 l -1.64356,-5.0141 -8.22528,7.4866 c -19.71057,17.9406 -52.58135,25.1489 -80.70829,17.6988 z m 94.37013,-49.4906 c 0.90341,-3.1166 4.65157,-14.9666 8.32925,-26.3333 6.89302,-21.3044 13.82757,-44.0611 15.74415,-51.6667 l 1.09199,-4.3333 h -24.41577 -24.41577 l -1.35988,6.3409 c -0.74794,3.4875 -4.99765,17.8172 -9.44382,31.8437 -4.44616,14.0266 -8.08393,27.3523 -8.08393,29.6127 0,4.3242 5.86548,12.28 11.18285,15.168 4.45691,2.4207 15.53645,4.7976 22.93943,4.9213 l 6.78895,0.1134 z"
           id="path2" /></g><g
         id="g9"
         style="fill:#a30a0a;fill-opacity:1"><path
           style="fill:#000000;fill-opacity:1"
           d="m 2167.6339,-2030.0304 c -21.8754,-4.0322 -39.3424,-17.3401 -47.4481,-36.15 -4.1926,-9.7291 -4.5441,-11.5997 -4.4891,-23.889 0.052,-11.5587 0.5518,-14.4662 3.7571,-21.8451 2.0336,-4.6815 4.9444,-10.1984 6.4686,-12.2599 3.5331,-4.7788 17.4402,-15.9601 24.3781,-19.6 13.3193,-6.9877 35.7018,-8.7807 53.0905,-4.2528 22.5234,5.865 43.047,28.0625 46.14,49.9033 4.7738,33.7091 -19.2144,63.6349 -54.9936,68.6056 -12.5596,1.7448 -14.9011,1.7002 -26.9035,-0.5121 z"
           id="path6" /><path
           style="fill:#000000;fill-opacity:1"
           d="m 1045.6339,-1816.2804 c 0,-0.8681 3.6,-12.2704 8,-25.3384 4.4,-13.0679 8,-24.5055 8,-25.4168 0,-0.9114 4.556,-16.0668 10.1245,-33.6787 5.5685,-17.612 12.2683,-38.9217 14.8885,-47.3551 2.6202,-8.4333 5.9137,-18.6333 7.319,-22.6666 1.4053,-4.0334 5.1832,-16.4013 8.3953,-27.4842 3.2121,-11.083 7.008,-23.383 8.4354,-27.3334 2.3983,-6.6376 8.2554,-25.5087 14.4373,-46.5158 l 2.5504,-8.6666 46.9248,-0.3504 c 40.0072,-0.2988 46.9248,-0.069 46.9248,1.56 0,3.9355 -10.5637,38.6041 -18.1168,59.457 -1.7265,4.7667 -3.9829,12.3293 -5.0143,16.8059 -1.0314,4.4765 -5.9216,20.6765 -10.8671,36 -15.1977,47.0888 -27.006,84.4434 -31.9887,101.1941 -2.6177,8.8 -7.3358,23.8 -10.4846,33.3334 l -5.7253,17.3333 -46.9016,0.3504 c -35.4318,0.2647 -46.9016,-0.036 -46.9016,-1.2281 z"
           id="path4" /><path
           style="fill:#000000;fill-opacity:1"
           d="m 2672.9672,-1690.0138 c -14.5069,-3.5894 -26.9475,-12.7523 -32.9812,-24.2915 -5.8891,-11.2627 -7.6855,-19.6819 -7.6855,-36.0202 0,-32.0924 9.2267,-55.1643 26.1056,-65.2785 2.511,-1.5047 2.5089,-1.5529 -0.1056,-2.4649 -13.9784,-4.8764 -28.7913,-14.8631 -36.4875,-24.5995 l -5.2516,-6.6438 -2.1518,4.5346 c -3.3352,7.0284 -18.7589,20.151 -28.0618,23.8752 -13.7187,5.492 -28.2122,6.4428 -90.7139,5.9509 l -57.3334,-0.4512 -6.6666,-3.3334 c -9.6934,-4.8466 -11.712,-9.4181 -10.8351,-24.5384 0.4366,-7.5294 1.9245,-15.5765 4.0677,-22 8.6029,-25.7852 12.7674,-38.6455 12.7674,-39.4278 0,-1.0696 -8.7767,5.8947 -18.5353,14.7077 -19.5475,17.6535 -61.7886,52.8696 -70.1314,58.4681 -13.3436,8.9544 -24.1367,13.9623 -33.3333,15.4665 -4.4,0.7197 -18.65,1.312 -31.6667,1.3162 -22.515,0.01 -23.6667,-0.1178 -23.6667,-2.5721 0,-1.4189 0.516,-3.9689 1.1467,-5.6667 0.6307,-1.6977 1.5404,-5.2432 2.0214,-7.8787 l 0.8747,-4.7919 -6.1532,5.8958 c -13.8859,13.305 -24.5859,15.0235 -93.2229,14.9726 -58.6469,-0.043 -67.1668,-0.7052 -74.8908,-5.8166 -5.0138,-3.318 -9.7759,-10.5502 -9.7759,-14.8466 0,-2.8817 -0.7718,-2.4967 -6.8815,3.4326 -8.547,8.2946 -23.1376,14.705 -36.9156,16.219 -12.1821,1.3386 -181.2266,0.7302 -193.0285,-0.6947 -25.1092,-3.0316 -60.2684,-20.0567 -67.2787,-32.5783 -0.9238,-1.65 -2.0282,-2.9977 -2.4543,-2.995 -0.4261,0 -1.8455,2.6094 -3.1543,5.7925 -1.3088,3.1832 -6.127,9.6472 -10.7072,14.3646 -15.6554,16.1244 -25.3662,17.6662 -106.5072,16.9104 -62.5983,-0.5831 -61.2219,-0.3959 -71.5544,-9.7307 -3.5349,-3.1935 -5.7404,-6.503 -6.2915,-9.4409 l -0.8487,-4.5237 -7.0897,6.3114 c -10.8093,9.6225 -20.7914,15.028 -34.3332,18.5921 -10.5138,2.7671 -14.5029,3.1544 -27.6218,2.6816 -15.1925,-0.5475 -28.3928,-3.6003 -35.2915,-8.1618 -4.8431,-3.2023 -13.6195,-11.9869 -18.5542,-18.5716 -4.0572,-5.4138 -4.9677,-6.05 -5.7246,-4 -2.2497,6.0935 -12.9186,16.4519 -20.878,20.2703 -13.0919,6.2806 -24.7246,7.1549 -88.2184,6.6302 l -56,-0.4627 -7.6628,-3.7629 c -6.4553,-3.1698 -8.6615,-5.271 -14,-13.3333 -3.4855,-5.2638 -8.2432,-13.7705 -10.5727,-18.9038 -2.3295,-5.1333 -7.339,-16.2333 -11.1322,-24.6667 -3.7932,-8.4333 -8.5887,-18.9333 -10.6565,-23.3333 -2.0679,-4.4 -6.5309,-14.3 -9.9179,-22 -3.3869,-7.7 -6.976,-15.5 -7.9757,-17.3333 -2.4699,-4.5296 -12.7489,-29.3595 -12.7489,-30.7963 0,-0.6341 1.65,-1.5274 3.6667,-1.9851 7.3232,-1.6622 19.964,-5.8955 33.6667,-11.2749 7.7,-3.0229 18.8,-7.1848 24.6666,-9.2488 32.3415,-11.3782 57.4383,-29.4991 66.8891,-48.2966 5.9393,-11.8133 7.1109,-16.1873 7.1109,-26.5473 0,-17.3634 -7.1827,-29.6752 -21.5508,-36.9398 -16.5469,-8.3662 -13.1067,-8.1959 -166.1158,-8.2214 -94.3731,-0.016 -139,-0.4637 -139,-1.3951 0,-0.7546 3.8175,-7.2046 8.4833,-14.3334 4.6658,-7.1287 12.8481,-20.1613 18.1829,-28.9613 5.3348,-8.8 10.5312,-17.35 11.5475,-19 l 1.8478,-3 136.9692,0.039 c 136.6586,0.039 162.5644,0.6931 179.003,4.521 4.7853,1.1143 11.0853,2.3772 14,2.8065 7.7453,1.1406 13.5131,3.1149 23.7179,8.1185 23.3604,11.454 35.0565,23.7953 42.3146,44.6487 3.5026,10.0636 3.8999,12.9019 3.9159,27.9795 0.027,25.3276 -5.4526,40.0616 -21.8588,58.7768 -23.1457,26.4031 -53.7363,46.1932 -108.834,70.4085 l -12.7106,5.5862 5.7617,12.0524 c 3.1689,6.6288 7.1865,15.4298 8.928,19.5577 1.7416,4.1279 7.3105,16.2053 12.3753,26.8386 5.0649,10.6333 11.267,23.9827 13.7826,29.6652 l 4.5737,10.3319 h 47.4646 47.4647 l -0.6205,-17.7847 c -0.4726,-13.5445 -0.096,-20.0922 1.5807,-27.4627 4.5062,-19.8122 15.4297,-37.7438 32.2362,-52.9174 12.5473,-11.3284 19.297,-15.2839 38.5371,-22.584 24.4293,-9.2691 32.2977,-9.9179 120.2836,-9.9179 84.8559,0 77.2249,-1.1325 72.9871,10.8324 -1.1365,3.2089 -5.3744,16.6343 -9.4175,29.8343 -6.4229,20.9694 -11.5329,36.4918 -16.6797,50.6667 -0.7987,2.2 -2.5394,8.3333 -3.8681,13.6297 -1.3286,5.2964 -3.665,12.9689 -5.192,17.05 -1.5269,4.0812 -2.7762,7.6978 -2.7762,8.0369 0,0.3392 22.5641,0.6167 50.1426,0.6167 47.2354,0 50.0864,-0.1353 49.1731,-2.3333 -5.9847,-14.4024 -6.765,-32.1126 -2.1497,-48.7909 3.337,-12.0587 4.9833,-15.5674 13.0251,-27.76 6.2358,-9.4544 10.2093,-13.2971 27.0162,-26.126 14.285,-10.904 41.0012,-20.3885 66.742,-23.694 22.2078,-2.8518 91.9012,-2.7574 103.1915,0.1398 14.4786,3.7152 26.8216,13.6685 33.7692,27.2311 3.2501,6.3446 3.7566,8.8613 3.7566,18.6666 0,12.466 -1.5719,17.692 -7.8205,26 -11.9822,15.9314 -24.2214,21.9591 -44.6409,21.9856 -19.5334,0.025 -31.8004,-5.4601 -41.8227,-18.7018 -7.1035,-9.3854 -9.0754,-14.4121 -10.0054,-25.5056 l -0.7711,-9.1977 -13.948,0.3764 -13.9479,0.3765 -4.3078,12.6666 c -6.8819,20.2359 -11.294,32.3486 -13.4489,36.9226 -2.6597,5.6454 -4.4226,15.4479 -3.6046,20.0437 1.1542,6.4846 6.4246,11.966 14.3605,14.9352 7.2353,2.7071 9.4768,2.7652 106.6205,2.7652 h 99.2298 l 1.4337,-5.6667 c 0.7886,-3.1166 5.0072,-16.7666 9.3748,-30.3333 4.3675,-13.5667 8.8446,-28.2667 9.9491,-32.6667 1.1044,-4.4 2.5495,-9.5 3.2113,-11.3333 0.6617,-1.8333 4.7008,-13.9833 8.9755,-27 l 7.7724,-23.6667 h 45.6951 c 38.4482,0 45.6951,0.2984 45.6951,1.8814 0,1.0347 -1.1298,5.0847 -2.5107,9 -1.3809,3.9152 -3.4271,10.1186 -4.5471,13.7853 -1.12,3.6667 -3.2902,9.9582 -4.8226,13.9812 -1.5324,4.0229 -2.7862,8.5875 -2.7862,10.1435 0,1.5559 -3.2175,12.3644 -7.15,24.0188 -3.9325,11.6544 -8.0902,24.4898 -9.2393,28.5232 -1.1492,4.0333 -3.561,12.2833 -5.3597,18.3333 l -3.2703,11 h 49.6576 49.6576 l 4.7379,-14.3333 c 2.6058,-7.8834 5.1438,-16.4334 5.6399,-19 0.496,-2.5667 5.0474,-17.1734 10.1141,-32.4595 5.0667,-15.286 9.2122,-28.4655 9.2122,-29.2878 0,-0.8223 2.4182,-9.1656 5.3739,-18.5406 l 5.374,-17.0455 h 46.1149 c 43.3085,0 46.0703,0.142 45.3837,2.3334 -0.4021,1.2833 -3.1364,10.4333 -6.0761,20.3333 -2.9398,9.9 -8.3808,27.1412 -12.0911,38.3139 -3.7103,11.1726 -6.746,20.669 -6.746,21.103 0,0.6721 29.8223,-24.1818 36.0975,-30.0836 1.1696,-1.1 5.5796,-5 9.8,-8.6666 4.2204,-3.6667 12.27,-10.7734 17.888,-15.7927 13.6564,-12.2012 29.2293,-22.461 42.2145,-27.8119 10.4048,-4.2875 11.1471,-4.3954 30.2355,-4.3954 21.944,0 24.8125,0.9883 29.3671,10.1179 2.5871,5.1858 3.2148,21.8323 1.0729,28.4541 -0.7285,2.252 -3.1652,10.3946 -5.415,18.0946 -2.2498,7.7 -8.1985,26.6 -13.2193,42 -5.0207,15.4 -9.5317,29.95 -10.0242,32.3334 l -0.8956,4.3333 h 47.95 47.95 l -2.1466,-5.6667 c -1.5307,-4.0408 -2.1554,-10.2574 -2.1774,-21.6666 -0.028,-14.8508 0.2939,-16.9084 4.4884,-28.6468 4.5488,-12.7296 10.3078,-24.501 15.0103,-30.6811 5.9224,-7.7831 25.515,-23.6664 34.1473,-27.6824 33.2955,-15.4901 40.2439,-16.3231 136.1693,-16.3231 40.9069,0 74.7233,0.3472 75.1476,0.7715 0.7658,0.7658 -0.1398,3.376 -8.2903,23.8952 -2.3303,5.8667 -4.8218,13.0667 -5.5365,16 -1.5557,6.3846 -5.3923,17.7079 -10.6163,31.3333 -4.6549,12.1412 -19.8839,56.3251 -19.8839,57.6893 0,0.5376 25.2,0.9774 56,0.9774 62.9194,0 58.508,-0.8254 53.449,10 -4.8354,10.3471 -17.8433,21.74 -29.9009,26.189 -10.9083,4.0248 -23.2997,5.3862 -57.3001,6.2953 l -31.752,0.849 -6.5552,16 c -3.6053,8.8 -8.2922,19.6 -10.4153,24 -2.1231,4.4 -5.5624,11.6 -7.643,16 -9.4649,20.0165 -26.0434,40.9248 -42.1139,53.113 -6.6102,5.0132 -24.9749,12.6165 -36.1531,14.9679 -10.8879,2.2903 -33.6443,2.2769 -42.9488,-0.025 z m 28.0896,-43.0556 c 0.4438,-2.0167 2.6142,-8.7667 4.8229,-15 10.9425,-30.8806 14.8826,-42.5672 16.408,-48.6667 0.9169,-3.6666 2.1208,-7.7471 2.6753,-9.0677 2.5655,-6.1102 -15.037,3.8176 -22.9934,12.9683 -4.0074,4.6089 -10.2498,17.241 -12.8525,26.0081 -3.9127,13.1798 -2.3357,23.0185 5.2925,33.0196 4.0915,5.3642 5.5923,5.5309 6.6472,0.7384 z m 33.5727,-119.7991 c 3.5772,-0.7155 4.2326,-1.658 6.2579,-9 1.2442,-4.5105 6.3383,-21.1009 11.3203,-36.8675 4.982,-15.7667 10.2867,-32.7167 11.7881,-37.6667 l 2.7298,-9 h -22.3726 -22.3726 l -1.6611,6.3333 c -0.9136,3.4834 -5.865,19.124 -11.0032,34.7571 -10.0596,30.607 -10.7825,36.2654 -5.5305,43.2904 4.5745,6.1188 7.6712,7.2175 24.6816,8.7565 1.1917,0.1078 3.9647,-0.1636 6.1623,-0.6031 z m -1154.4156,-10.8675 c 2.0185,-8.0238 11.6187,-38.8762 14.8322,-47.6667 1.3404,-3.6667 3.6966,-11.4667 5.236,-17.3333 1.5394,-5.8667 3.3604,-12.0167 4.0467,-13.6667 l 1.2479,-3 h -24.4247 -24.4247 l -1.4836,5 c -0.8159,2.75 -5.1878,16.6158 -9.7151,30.813 -7.1424,22.3978 -8.1282,26.7198 -7.4503,32.6667 0.6435,5.6453 1.5927,7.5658 5.384,10.8931 5.4054,4.744 17.0324,8.3157 27.6649,8.4984 l 7.4934,0.1288 z"
           id="path1" /></g></g></g></svg>
